<svg width="19" height="19" viewBox="0 0 19 19" fill="none" xmlns="http://www.w3.org/2000/svg">
<path d="M17.8212 17.3353L12.6771 12.1611C12.6192 12.1059 12.5517 12.0621 12.4778 12.0318C13.6546 10.6296 14.2472 8.82432 14.1319 6.99303C14.0166 5.16173 13.2024 3.44605 11.8592 2.20437C10.516 0.962686 8.74782 0.291033 6.92395 0.329707C5.10008 0.368381 3.3616 1.11439 2.07164 2.4119C0.781684 3.70942 0.0400211 5.45809 0.0015728 7.29265C-0.0368754 9.1272 0.630865 10.9058 1.86531 12.2568C3.09976 13.6078 4.80545 14.4269 6.62608 14.5428C8.44671 14.6588 10.2415 14.0627 11.6355 12.879C11.6656 12.9533 11.7092 13.0213 11.7641 13.0795L16.9081 18.2537C16.9679 18.3143 17.039 18.3624 17.1173 18.3953C17.1957 18.4281 17.2797 18.445 17.3646 18.445C17.4495 18.445 17.5336 18.4281 17.6119 18.3953C17.6903 18.3624 17.7614 18.3143 17.8212 18.2537C17.8814 18.1936 17.9293 18.122 17.9619 18.0432C17.9945 17.9644 18.0114 17.8799 18.0114 17.7945C18.0114 17.7091 17.9945 17.6246 17.9619 17.5458C17.9293 17.4669 17.8814 17.3954 17.8212 17.3353ZM7.07659 13.2671C5.93203 13.2671 4.81317 12.9257 3.8615 12.2861C2.90983 11.6465 2.16809 10.7374 1.73008 9.67375C1.29208 8.61011 1.17747 7.43972 1.40077 6.31057C1.62406 5.18142 2.17522 4.14423 2.98455 3.33016C3.79388 2.51609 4.82503 1.9617 5.9476 1.7371C7.07017 1.5125 8.23375 1.62777 9.29119 2.06834C10.3486 2.50892 11.2524 3.255 11.8883 4.21225C12.5242 5.16949 12.8636 6.29491 12.8636 7.44618C12.8636 8.98998 12.2539 10.4706 11.1686 11.5622C10.0834 12.6538 8.6114 13.2671 7.07659 13.2671Z" fill="#4A4A4A"/>
</svg>
